<?xml version="1.0" encoding="UTF-8" standalone="no"?>
<!-- Created with Inkscape (http://www.inkscape.org/) -->

<svg
   xmlns:dc="http://purl.org/dc/elements/1.1/"
   xmlns:cc="http://creativecommons.org/ns#"
   xmlns:rdf="http://www.w3.org/1999/02/22-rdf-syntax-ns#"
   xmlns:svg="http://www.w3.org/2000/svg"
   xmlns="http://www.w3.org/2000/svg"
   xmlns:sodipodi="http://sodipodi.sourceforge.net/DTD/sodipodi-0.dtd"
   xmlns:inkscape="http://www.inkscape.org/namespaces/inkscape"
   width="32"
   height="32"
   id="svg14622"
   version="1.1"
   inkscape:version="0.48+devel r13495"
   viewBox="0 0 32 32.000001"
   sodipodi:docname="faq.svg">
  <defs
     id="defs14624" />
  <sodipodi:namedview
     id="base"
     pagecolor="#ffffff"
     bordercolor="#666666"
     borderopacity="1.0"
     inkscape:pageopacity="0.0"
     inkscape:pageshadow="2"
     inkscape:zoom="5.6"
     inkscape:cx="7.8203009"
     inkscape:cy="17.485184"
     inkscape:document-units="px"
     inkscape:current-layer="g12326"
     showgrid="false"
     fit-margin-top="0"
     fit-margin-left="0"
     fit-margin-right="0"
     fit-margin-bottom="0"
     inkscape:snap-bbox="true"
     inkscape:bbox-paths="true"
     inkscape:snap-page="true"
     inkscape:snap-object-midpoints="false"
     inkscape:bbox-nodes="true"
     inkscape:window-width="1366"
     inkscape:window-height="723"
     inkscape:window-x="0"
     inkscape:window-y="21"
     inkscape:window-maximized="1" />
  <metadata
     id="metadata14627">
    <rdf:RDF>
      <cc:Work
         rdf:about="">
        <dc:format>image/svg+xml</dc:format>
        <dc:type
           rdf:resource="http://purl.org/dc/dcmitype/StillImage" />
        <dc:title></dc:title>
      </cc:Work>
    </rdf:RDF>
  </metadata>
  <g
     inkscape:label="Calque 1"
     inkscape:groupmode="layer"
     id="layer1"
     transform="translate(-20.162097,-42.150744)">
    <circle
       r="16"
       cy="58.150742"
       cx="36.162098"
       style="color:#000000;display:inline;overflow:visible;visibility:visible;fill:#5f5557;fill-opacity:1;fill-rule:nonzero;stroke:none;stroke-width:8;marker:none;enable-background:accumulate"
       id="path12308"
       d="m 52.162098,58.150742 a 16,16 0 0 1 -16,16 16,16 0 0 1 -16,-16 16,16 0 0 1 16,-16 16,16 0 0 1 16,16 z" />
    <g
       style="stroke:#ffffff;stroke-opacity:1"
       transform="matrix(0.29207305,0,0,0.29207305,120.82086,1047.1346)"
       id="g12326">
      <g
         style="font-style:normal;font-variant:normal;font-weight:normal;font-stretch:normal;font-size:42.33991241px;line-height:125%;font-family:'Nimbus Sans L';-inkscape-font-specification:'Nimbus Sans L';letter-spacing:0px;word-spacing:0px;fill:#ffffff;fill-opacity:1;stroke:none"
         id="text12119"
         transform="matrix(1.5211801,0,0,1.5211801,-367.33973,-3452.9425)">
        <path
           d="m 61.057227,37.398227 q 0,1.550534 -0.454823,2.770288 -0.454823,1.219753 -1.302448,2.253442 -0.847625,1.03369 -2.770288,2.439507 l -1.653902,1.219753 q -1.488513,1.075037 -2.212095,2.274117 -0.723583,1.178405 -0.744257,2.584223 l -3.617912,0 q 0.04135,-1.426491 0.434149,-2.501528 0.413476,-1.075037 1.054363,-1.901988 0.640888,-0.826952 1.447165,-1.467839 0.806278,-0.661561 1.633229,-1.240427 0.826952,-0.59954 1.612556,-1.178406 0.806277,-0.59954 1.426491,-1.323122 0.620213,-0.723583 0.992342,-1.633229 0.392802,-0.909647 0.392802,-2.1294 0,-2.356812 -1.612556,-3.721282 -1.591881,-1.364469 -4.486211,-1.364469 -2.89433,0 -4.58958,1.447164 -1.695251,1.447165 -1.984684,3.969367 l -3.803976,-0.248085 q 0.537518,-4.09341 3.22511,-6.284831 2.687592,-2.191421 7.111782,-2.191421 4.610254,0 7.256499,2.191421 2.646244,2.170748 2.646244,6.036745 z m -12.921115,21.335347 0,-4.155431 4.031388,0 0,4.155431 -4.031388,0 z"
           id="path8215"
           inkscape:connector-curvature="0" />
      </g>
      <g
         transform="matrix(1.0868862,0,0,1.0868862,-318.82477,-3427.4349)"
         id="g8254"
         style="font-style:normal;font-variant:normal;font-weight:normal;font-stretch:normal;font-size:42.33991241px;line-height:125%;font-family:'Nimbus Sans L';-inkscape-font-specification:'Nimbus Sans L';letter-spacing:0px;word-spacing:0px;fill:#ffffff;fill-opacity:1;stroke:none">
        <path
           inkscape:connector-curvature="0"
           id="path8256"
           d="m 61.057227,37.398227 q 0,1.550534 -0.454823,2.770288 -0.454823,1.219753 -1.302448,2.253442 -0.847625,1.03369 -2.770288,2.439507 l -1.653902,1.219753 q -1.488513,1.075037 -2.212095,2.274117 -0.723583,1.178405 -0.744257,2.584223 l -3.617912,0 q 0.04135,-1.426491 0.434149,-2.501528 0.413476,-1.075037 1.054363,-1.901988 0.640888,-0.826952 1.447165,-1.467839 0.806278,-0.661561 1.633229,-1.240427 0.826952,-0.59954 1.612556,-1.178406 0.806277,-0.59954 1.426491,-1.323122 0.620213,-0.723583 0.992342,-1.633229 0.392802,-0.909647 0.392802,-2.1294 0,-2.356812 -1.612556,-3.721282 -1.591881,-1.364469 -4.486211,-1.364469 -2.89433,0 -4.58958,1.447164 -1.695251,1.447165 -1.984684,3.969367 l -3.803976,-0.248085 q 0.537518,-4.09341 3.22511,-6.284831 2.687592,-2.191421 7.111782,-2.191421 4.610254,0 7.256499,2.191421 2.646244,2.170748 2.646244,6.036745 z m -12.921115,21.335347 0,-4.155431 4.031388,0 0,4.155431 -4.031388,0 z" />
      </g>
      <g
         style="font-style:normal;font-variant:normal;font-weight:normal;font-stretch:normal;font-size:42.33991241px;line-height:125%;font-family:'Nimbus Sans L';-inkscape-font-specification:'Nimbus Sans L';letter-spacing:0px;word-spacing:0px;fill:#ffffff;fill-opacity:1;stroke:none"
         id="g8258"
         transform="matrix(1.0868862,0,0,1.0868862,-371.61108,-3427.4349)">
        <path
           d="m 61.057227,37.398227 q 0,1.550534 -0.454823,2.770288 -0.454823,1.219753 -1.302448,2.253442 -0.847625,1.03369 -2.770288,2.439507 l -1.653902,1.219753 q -1.488513,1.075037 -2.212095,2.274117 -0.723583,1.178405 -0.744257,2.584223 l -3.617912,0 q 0.04135,-1.426491 0.434149,-2.501528 0.413476,-1.075037 1.054363,-1.901988 0.640888,-0.826952 1.447165,-1.467839 0.806278,-0.661561 1.633229,-1.240427 0.826952,-0.59954 1.612556,-1.178406 0.806277,-0.59954 1.426491,-1.323122 0.620213,-0.723583 0.992342,-1.633229 0.392802,-0.909647 0.392802,-2.1294 0,-2.356812 -1.612556,-3.721282 -1.591881,-1.364469 -4.486211,-1.364469 -2.89433,0 -4.58958,1.447164 -1.695251,1.447165 -1.984684,3.969367 l -3.803976,-0.248085 q 0.537518,-4.09341 3.22511,-6.284831 2.687592,-2.191421 7.111782,-2.191421 4.610254,0 7.256499,2.191421 2.646244,2.170748 2.646244,6.036745 z m -12.921115,21.335347 0,-4.155431 4.031388,0 0,4.155431 -4.031388,0 z"
           id="path8260"
           inkscape:connector-curvature="0" />
      </g>
    </g>
  </g>
</svg>
