<?xml version="1.0" encoding="UTF-8" standalone="no"?>
<!-- Created with Inkscape (http://www.inkscape.org/) -->

<svg
   xmlns:dc="http://purl.org/dc/elements/1.1/"
   xmlns:cc="http://creativecommons.org/ns#"
   xmlns:rdf="http://www.w3.org/1999/02/22-rdf-syntax-ns#"
   xmlns:svg="http://www.w3.org/2000/svg"
   xmlns="http://www.w3.org/2000/svg"
   xmlns:sodipodi="http://sodipodi.sourceforge.net/DTD/sodipodi-0.dtd"
   xmlns:inkscape="http://www.inkscape.org/namespaces/inkscape"
   width="32"
   height="32"
   id="svg14622"
   version="1.1"
   inkscape:version="0.91pre0 r13343"
   viewBox="0 0 32 32.000001"
   sodipodi:docname="uesr.svg">
  <defs
     id="defs14624" />
  <sodipodi:namedview
     id="base"
     pagecolor="#ffffff"
     bordercolor="#666666"
     borderopacity="1.0"
     inkscape:pageopacity="0.0"
     inkscape:pageshadow="2"
     inkscape:zoom="5.6"
     inkscape:cx="10.231015"
     inkscape:cy="21.94947"
     inkscape:document-units="px"
     inkscape:current-layer="g12326"
     showgrid="false"
     fit-margin-top="0"
     fit-margin-left="0"
     fit-margin-right="0"
     fit-margin-bottom="0"
     inkscape:snap-bbox="true"
     inkscape:bbox-paths="true"
     inkscape:snap-page="true"
     inkscape:snap-object-midpoints="false"
     inkscape:bbox-nodes="true"
     inkscape:window-width="1543"
     inkscape:window-height="876"
     inkscape:window-x="57"
     inkscape:window-y="24"
     inkscape:window-maximized="1" />
  <metadata
     id="metadata14627">
    <rdf:RDF>
      <cc:Work
         rdf:about="">
        <dc:format>image/svg+xml</dc:format>
        <dc:type
           rdf:resource="http://purl.org/dc/dcmitype/StillImage" />
        <dc:title></dc:title>
      </cc:Work>
    </rdf:RDF>
  </metadata>
  <g
     inkscape:label="Calque 1"
     inkscape:groupmode="layer"
     id="layer1"
     transform="translate(-20.162097,-42.150744)">
    <g
       style="stroke:#ffffff;stroke-opacity:1"
       transform="matrix(0.29207305,0,0,0.29207305,120.82086,1047.1346)"
       id="g12326">
      <circle
         r="54.780827"
         cy="-3386.084"
         cx="-289.85474"
         id="path12454"
         style="color:#000000;display:inline;overflow:visible;visibility:visible;fill:#5f5557;fill-opacity:1;fill-rule:nonzero;stroke:none;stroke-width:8;marker:none;enable-background:accumulate"
         d="m -235.07391,-3386.084 a 54.780827,54.780827 0 0 1 -54.78083,54.7808 54.780827,54.780827 0 0 1 -54.78082,-54.7808 54.780827,54.780827 0 0 1 54.78082,-54.7808 54.780827,54.780827 0 0 1 54.78083,54.7808 z" />
      <circle
         r="13.361743"
         cy="-3400.4666"
         cx="-291.33752"
         style="color:#000000;display:inline;overflow:visible;visibility:visible;fill:none;stroke:#ffffff;stroke-width:2.19928575;stroke-miterlimit:4;stroke-dasharray:none;stroke-opacity:1;marker:none;enable-background:accumulate"
         id="path12555"
         d="m -277.97578,-3400.4666 a 13.361743,13.361743 0 0 1 -13.36174,13.3618 13.361743,13.361743 0 0 1 -13.36175,-13.3618 13.361743,13.361743 0 0 1 13.36175,-13.3617 13.361743,13.361743 0 0 1 13.36174,13.3617 z" />
      <path
         style="color:#000000;display:inline;overflow:visible;visibility:visible;fill:none;stroke:#ffffff;stroke-width:2.19928575;stroke-miterlimit:4;stroke-dasharray:none;stroke-opacity:1;marker:none;enable-background:accumulate"
         d="m -291.37757,-3383.8464 c -12.16028,0 -22.00587,9.7921 -22.09314,21.9315 6.33176,4.1861 13.93466,6.6118 22.09314,6.6118 8.19802,0 15.82338,-2.4687 22.17339,-6.6923 -0.13213,-12.1021 -10.04057,-21.851 -22.17339,-21.851 z"
         id="path12559"
         inkscape:connector-curvature="0" />
    </g>
  </g>
</svg>
