<?xml version="1.0" encoding="UTF-8" standalone="no"?>
<!-- Created with Inkscape (http://www.inkscape.org/) -->

<svg
   xmlns:dc="http://purl.org/dc/elements/1.1/"
   xmlns:cc="http://creativecommons.org/ns#"
   xmlns:rdf="http://www.w3.org/1999/02/22-rdf-syntax-ns#"
   xmlns:svg="http://www.w3.org/2000/svg"
   xmlns="http://www.w3.org/2000/svg"
   xmlns:xlink="http://www.w3.org/1999/xlink"
   xmlns:sodipodi="http://sodipodi.sourceforge.net/DTD/sodipodi-0.dtd"
   xmlns:inkscape="http://www.inkscape.org/namespaces/inkscape"
   width="64"
   height="64"
   id="svg14622"
   version="1.1"
   inkscape:version="0.91pre0 r13343"
   viewBox="0 0 63.999999 64.000002"
   sodipodi:docname="sun.svg">
  <defs
     id="defs14624">
    <radialGradient
       inkscape:collect="always"
       xlink:href="#linearGradient7423"
       id="radialGradient7429"
       cx="54.271488"
       cy="10.949031"
       fx="54.271488"
       fy="10.949031"
       r="2.2954693"
       gradientUnits="userSpaceOnUse" />
    <linearGradient
       inkscape:collect="always"
       id="linearGradient7423">
      <stop
         style="stop-color:#ffd974;stop-opacity:1"
         offset="0"
         id="stop7425" />
      <stop
         style="stop-color:#ffd35d;stop-opacity:1"
         offset="1"
         id="stop7427" />
    </linearGradient>
  </defs>
  <sodipodi:namedview
     id="base"
     pagecolor="#ffffff"
     bordercolor="#666666"
     borderopacity="1.0"
     inkscape:pageopacity="0.0"
     inkscape:pageshadow="2"
     inkscape:zoom="3.959798"
     inkscape:cx="35.864005"
     inkscape:cy="23.896049"
     inkscape:document-units="px"
     inkscape:current-layer="layer1"
     showgrid="false"
     fit-margin-top="0"
     fit-margin-left="0"
     fit-margin-right="0"
     fit-margin-bottom="0"
     inkscape:snap-bbox="true"
     inkscape:bbox-paths="true"
     inkscape:snap-page="true"
     inkscape:snap-object-midpoints="false"
     inkscape:bbox-nodes="true"
     inkscape:window-width="1543"
     inkscape:window-height="876"
     inkscape:window-x="57"
     inkscape:window-y="24"
     inkscape:window-maximized="1" />
  <metadata
     id="metadata14627">
    <rdf:RDF>
      <cc:Work
         rdf:about="">
        <dc:format>image/svg+xml</dc:format>
        <dc:type
           rdf:resource="http://purl.org/dc/dcmitype/StillImage" />
        <dc:title></dc:title>
      </cc:Work>
    </rdf:RDF>
  </metadata>
  <g
     inkscape:label="Calque 1"
     inkscape:groupmode="layer"
     id="layer1"
     transform="translate(-20.162097,-10.150743)">
    <path
       style="fill:#ddd2b1;fill-opacity:1;fill-rule:evenodd;stroke:none;stroke-width:1px;stroke-linecap:butt;stroke-linejoin:miter;stroke-opacity:1"
       d="m 55.037951,10.150743 c -0.435068,0.942491 -1.012927,1.812226 -1.713187,2.578518 -0.841526,0.908259 -1.842983,1.653925 -2.954373,2.199752 -2.021693,-0.656119 -3.784662,-1.933736 -5.037571,-3.650715 -0.107407,-0.156342 -0.210427,-0.315681 -0.308847,-0.477825 -0.124427,1.031771 -0.407477,2.038134 -0.839111,2.983505 -0.429995,0.932757 -0.999844,1.794418 -1.689871,2.55521 -1.903833,-0.196344 -3.712596,-0.929953 -5.215316,-2.115259 -0.146356,-0.121235 -0.28913,-0.246564 -0.428303,-0.375853 0.157409,1.02653 0.155454,2.071205 -0.0058,3.097135 -0.203022,1.237288 -0.634792,2.425918 -1.273235,3.505036 -2.0599,0.585684 -4.252689,0.500993 -6.261274,-0.241827 -0.17591,-0.07084 -0.349864,-0.146624 -0.521543,-0.227261 0.46747,0.927948 0.788826,1.922513 0.952737,2.948543 0.188067,1.223209 0.149533,2.470575 -0.113701,3.679851 -1.771768,1.174703 -3.869219,1.759993 -5.993239,1.672397 -0.18886,-0.01208 -0.377349,-0.0296 -0.565235,-0.05233 0.730478,0.737857 1.342741,1.584009 1.815164,2.50859 0.557253,1.10975 0.904939,2.312806 1.025576,3.548739 -1.324093,1.669416 -3.142556,2.876964 -5.194908,3.44968 -0.183363,0.04599 -0.367941,0.08679 -0.553591,0.122368 0.922471,0.477619 1.765685,1.094809 2.499852,1.829727 0.880313,0.892153 1.586773,1.940469 2.083215,3.091312 -0.73791,2.010186 -2.096033,3.733596 -3.877977,4.921037 -0.160421,0.100693 -0.323646,0.196893 -0.489459,0.288442 1.024672,0.168192 2.017265,0.493476 2.942718,0.964394 1.100527,0.567746 2.087174,1.333163 2.910666,2.258025 -0.09308,2.122746 -0.853716,4.161979 -2.173528,5.827156 -0.12216,0.146311 -0.248481,0.28913 -0.378776,0.428303 1.026686,-0.156458 2.07136,-0.153499 3.097136,0.009 1.01472,0.165285 1.998216,0.484596 2.91648,0.946918 0.31984,1.887072 0.09652,3.826187 -0.643898,5.591158 -0.0786,0.173267 -0.162219,0.344261 -0.250545,0.512769 0.947263,-0.425923 1.954598,-0.703039 2.986412,-0.82163 1.247539,-0.135004 2.509323,-0.03647 3.720641,0.29135 1.113922,1.827728 1.617969,3.962257 1.439302,6.095212 -0.02114,0.189122 -0.04705,0.377613 -0.0786,0.565235 0.768476,-0.698701 1.640185,-1.274603 2.584345,-1.707362 1.128019,-0.507959 2.339799,-0.804268 3.574956,-0.874071 1.606319,1.392317 2.732023,3.256247 3.216603,5.326021 0.03859,0.186479 0.07131,0.373966 0.09905,0.562322 0.516364,-0.901847 1.168952,-1.71853 1.934623,-2.421185 0.950935,-0.861664 2.057458,-1.534084 3.260285,-1.981231 2.024459,0.80175 3.735368,2.236701 4.87733,4.090664 0.09594,0.163488 0.187273,0.329619 0.273907,0.498233 0.203766,-1.018339 0.563438,-1.999135 1.066366,-2.907753 0.502673,-0.896561 1.139356,-1.711073 1.888007,-2.415359 1.88195,0.345211 3.627004,1.218256 5.03175,2.517331 0.135899,0.132199 0.268038,0.268251 0.396269,0.4079 -0.07563,-1.035264 0.009,-2.075994 0.250542,-3.085484 0.299124,-1.218549 0.822776,-2.370649 1.544187,-3.397234 2.098583,-0.422014 4.277019,-0.165919 6.220503,0.731314 0.170464,0.08363 0.338553,0.172049 0.504049,0.265132 -0.394465,-0.961042 -0.638186,-1.977226 -0.722576,-3.012644 -0.09174,-1.235117 0.04445,-2.476584 0.402089,-3.662365 1.857844,-1.031814 3.993972,-1.450877 6.103954,-1.197485 0.188333,0.02749 0.375876,0.06073 0.562316,0.09905 -0.67102,-0.793495 -1.215482,-1.68585 -1.614121,-2.645533 -0.469157,-1.150055 -0.722024,-2.376821 -0.745877,-3.618664 1.45046,-1.560752 3.357652,-2.62245 5.448387,-3.033036 0.186648,-0.03171 0.374191,-0.05772 0.562331,-0.07865 -0.881999,-0.548216 -1.674105,-1.229273 -2.348347,-2.01911 -0.809157,-0.958282 -1.432635,-2.05899 -1.838466,-3.245728 0.893978,-1.945954 2.383731,-3.557132 4.253822,-4.600542 0.167569,-0.08827 0.337614,-0.171839 0.509868,-0.250544 -1.009215,-0.246633 -1.974291,-0.647609 -2.861137,-1.188746 -1.052476,-0.652377 -1.975917,-1.492857 -2.724195,-2.479456 0.258417,-2.109401 1.176097,-4.083407 2.622219,-5.640691 0.133213,-0.135944 0.270156,-0.26804 0.410814,-0.396273 -1.036381,0.07501 -2.078116,-0.01059 -3.088391,-0.253503 -0.997954,-0.243092 -1.952944,-0.637064 -2.832003,-1.168344 -0.170835,-1.906629 0.204027,-3.822528 1.080939,-5.524147 0.09055,-0.166781 0.185738,-0.330978 0.285536,-0.492393 -0.977754,0.350566 -2.003752,0.548098 -3.041773,0.585629 -1.012648,0.03182 -2.024308,-0.08897 -3.001003,-0.358368 -0.868066,-1.887349 -1.1326,-3.996583 -0.757512,-6.03985 0.03968,-0.185752 0.08413,-0.37035 0.134108,-0.553581 -0.834233,0.618964 -1.759046,1.105432 -2.741707,1.442222 -0.842274,0.281894 -1.718096,0.451376 -2.604735,0.504049 -0.96767,-1.469984 -1.534145,-3.16744 -1.643247,-4.923949 -0.0058,-0.190288 -0.0075,-0.380716 -0.003,-0.571063 -0.660326,0.802614 -1.44066,1.498421 -2.313393,2.062815 -0.870687,0.557712 -1.821903,0.97829 -2.820332,1.247045 -1.427069,-1.204155 -2.49214,-2.780577 -3.076743,-4.553925 -0.0546,-0.181158 -0.104288,-0.363813 -0.148578,-0.547753 z"
       id="path7691"
       inkscape:connector-curvature="0"
       sodipodi:nodetypes="ccccccccccccccccccccccccccccccccccccccccccccccccccccccccccccccccccccccccccccccccccccc" />
    <g
       id="g7482"
       transform="matrix(11.813135,0,0,11.813135,-589.18632,-87.372382)">
      <circle
         r="2.2954693"
         cy="10.949031"
         cx="54.271488"
         id="path7421"
         style="opacity:1;fill:url(#radialGradient7429);fill-opacity:1;stroke:none;stroke-width:1;stroke-miterlimit:4;stroke-dasharray:none;stroke-opacity:1"
         d="M 56.566957,10.949031 A 2.2954693,2.2954693 0 0 1 54.271488,13.2445 2.2954693,2.2954693 0 0 1 51.976019,10.949031 2.2954693,2.2954693 0 0 1 54.271488,8.6535616 2.2954693,2.2954693 0 0 1 56.566957,10.949031 Z" />
      <ellipse
         ry="0.67380553"
         rx="0.5383181"
         cy="10.603694"
         cx="55.72393"
         id="path7451"
         style="opacity:1;fill:#ffeebc;fill-opacity:0.35922331;stroke:none;stroke-width:1;stroke-miterlimit:4;stroke-dasharray:none;stroke-opacity:1"
         d="M 56.262248,10.603694 A 0.5383181,0.67380553 0 0 1 55.72393,11.277499 0.5383181,0.67380553 0 0 1 55.185612,10.603694 0.5383181,0.67380553 0 0 1 55.72393,9.9298884 0.5383181,0.67380553 0 0 1 56.262248,10.603694 Z" />
      <ellipse
         style="opacity:1;fill:#ffeebc;fill-opacity:0.35922331;stroke:none;stroke-width:1;stroke-miterlimit:4;stroke-dasharray:none;stroke-opacity:1"
         id="ellipse7453"
         cx="55.343044"
         cy="10.155198"
         rx="0.41135627"
         ry="0.45194274"
         d="m 55.754401,10.155198 a 0.41135627,0.45194274 0 0 1 -0.411357,0.451943 0.41135627,0.45194274 0 0 1 -0.411356,-0.451943 0.41135627,0.45194274 0 0 1 0.411356,-0.4519426 0.41135627,0.45194274 0 0 1 0.411357,0.4519426 z" />
      <ellipse
         style="opacity:1;fill:#ffeebc;fill-opacity:0.35922331;stroke:none;stroke-width:1;stroke-miterlimit:4;stroke-dasharray:none;stroke-opacity:1"
         id="ellipse7455"
         cx="53.032341"
         cy="11.395936"
         rx="0.63988751"
         ry="0.67380553"
         d="m 53.672229,11.395936 a 0.63988751,0.67380553 0 0 1 -0.639888,0.673806 0.63988751,0.67380553 0 0 1 -0.639888,-0.673806 0.63988751,0.67380553 0 0 1 0.639888,-0.673806 0.63988751,0.67380553 0 0 1 0.639888,0.673806 z" />
      <ellipse
         ry="0.52407098"
         rx="0.49769029"
         cy="10.662016"
         cx="53.326893"
         id="ellipse7457"
         style="opacity:1;fill:#ffeebc;fill-opacity:0.35922331;stroke:none;stroke-width:1;stroke-miterlimit:4;stroke-dasharray:none;stroke-opacity:1"
         d="m 53.824583,10.662016 a 0.49769029,0.52407098 0 0 1 -0.49769,0.524071 0.49769029,0.52407098 0 0 1 -0.49769,-0.524071 0.49769029,0.52407098 0 0 1 0.49769,-0.524071 0.49769029,0.52407098 0 0 1 0.49769,0.524071 z" />
      <ellipse
         style="opacity:1;fill:#ffeebc;fill-opacity:0.35922331;stroke:none;stroke-width:1;stroke-miterlimit:4;stroke-dasharray:none;stroke-opacity:1"
         id="ellipse7459"
         cx="52.899345"
         cy="12.053517"
         rx="0.32406834"
         ry="0.34124598"
         d="m 53.223414,12.053517 a 0.32406834,0.34124598 0 0 1 -0.324069,0.341246 0.32406834,0.34124598 0 0 1 -0.324068,-0.341246 0.32406834,0.34124598 0 0 1 0.324068,-0.341246 0.32406834,0.34124598 0 0 1 0.324069,0.341246 z" />
      <path
         id="ellipse7461"
         transform="matrix(0.28222224,0,0,0.28222224,0.39905348,6.6290842)"
         d="m 193.38867,18.570312 a 3.1850419,3.1072832 0 0 0 -3.18555,3.107422 3.1850419,3.1072832 0 0 0 0.5625,1.757813 8.1335521,8.1335521 0 0 0 0.1211,0.0059 8.1335521,8.1335521 0 0 0 5.64258,-2.279297 3.1850419,3.1072832 0 0 0 -3.14063,-2.591797 z"
         style="opacity:1;fill:#ffeebc;fill-opacity:0.35922331;stroke:none;stroke-width:1;stroke-miterlimit:4;stroke-dasharray:none;stroke-opacity:1"
         inkscape:connector-curvature="0" />
      <ellipse
         style="opacity:1;fill:#ffeebc;fill-opacity:0.35922331;stroke:none;stroke-width:1;stroke-miterlimit:4;stroke-dasharray:none;stroke-opacity:1"
         id="ellipse7466"
         cx="54.911373"
         cy="11.491799"
         rx="0.17266805"
         ry="0.18182054"
         d="m 55.084041,11.491799 a 0.17266805,0.18182054 0 0 1 -0.172668,0.181821 0.17266805,0.18182054 0 0 1 -0.172668,-0.181821 0.17266805,0.18182054 0 0 1 0.172668,-0.18182 0.17266805,0.18182054 0 0 1 0.172668,0.18182 z" />
      <ellipse
         ry="0.13154623"
         rx="0.12492445"
         cy="11.326612"
         cx="54.755898"
         id="ellipse7468"
         style="opacity:1;fill:#ffeebc;fill-opacity:0.35922331;stroke:none;stroke-width:1;stroke-miterlimit:4;stroke-dasharray:none;stroke-opacity:1"
         d="m 54.880822,11.326612 a 0.12492445,0.13154623 0 0 1 -0.124924,0.131547 0.12492445,0.13154623 0 0 1 -0.124925,-0.131547 0.12492445,0.13154623 0 0 1 0.124925,-0.131546 0.12492445,0.13154623 0 0 1 0.124924,0.131546 z" />
      <path
         id="ellipse7470"
         transform="matrix(0.28222224,0,0,0.28222224,0.39905348,6.6290842)"
         d="m 190.88672,7.1738281 a 8.1335521,8.1335521 0 0 0 -8.13281,8.1328129 8.1335521,8.1335521 0 0 0 0.004,0.111328 7.089867,7.4656736 0 0 0 3.73828,1.132812 7.089867,7.4656736 0 0 0 7.08985,-7.4667966 7.089867,7.4656736 0 0 0 -0.15235,-1.4941406 8.1335521,8.1335521 0 0 0 -2.54687,-0.4160157 z"
         style="opacity:1;fill:#ffeebc;fill-opacity:0.35922331;stroke:none;stroke-width:1;stroke-miterlimit:4;stroke-dasharray:none;stroke-opacity:1"
         inkscape:connector-curvature="0" />
      <path
         id="ellipse7477"
         transform="matrix(0.28222224,0,0,0.28222224,0.39905348,6.6290842)"
         d="m 195.66211,13.783203 a 4.5230362,4.7627852 0 0 0 -4.52344,4.763672 4.5230362,4.7627852 0 0 0 2.67969,4.345703 8.1335521,8.1335521 0 0 0 5.19922,-7.53125 4.5230362,4.7627852 0 0 0 -3.35547,-1.578125 z"
         style="opacity:1;fill:#ffeebc;fill-opacity:0.35922331;stroke:none;stroke-width:1;stroke-miterlimit:4;stroke-dasharray:none;stroke-opacity:1"
         inkscape:connector-curvature="0" />
    </g>
  </g>
</svg>
